<svg version="1.1" id="Layer_1" xmlns="http://www.w3.org/2000/svg" xmlns:xlink="http://www.w3.org/1999/xlink" x="0px" y="0px"
	 width="100%" viewBox="0 0 600 400" enable-background="new 0 0 600 400" xml:space="preserve">
<path fill="#FFFFFF" opacity="1.000000" stroke="none" 
	d="
M367.000000,401.000000 
	C246.166702,401.000000 125.833366,400.979706 5.500176,401.094360 
	C1.750783,401.097931 0.902493,400.249786 0.905744,396.500000 
	C1.018738,266.166809 1.018726,135.833466 0.905794,5.500263 
	C0.902546,1.751163 1.750110,0.904332 5.499867,0.906352 
	C202.499771,1.012439 399.499725,1.012423 596.499634,0.906443 
	C600.248169,0.904427 601.097595,1.749429 601.094360,5.499755 
	C600.981323,135.832962 600.981323,266.166290 601.094238,396.499481 
	C601.097473,400.247986 600.251465,401.101807 596.500244,401.095551 
	C520.166992,400.968170 443.833466,401.000000 367.000000,401.000000 
z"/>
<path fill="#2F2F2F" opacity="1.000000" stroke="none" 
	d="
M345.634125,143.496780 
	C345.413452,142.728607 345.198364,142.224258 345.324951,142.114670 
	C346.381775,141.199860 359.976654,140.434769 360.639954,141.384308 
	C361.142365,142.103607 361.209686,143.233734 361.210388,144.181213 
	C361.238586,182.334488 361.188995,220.487946 361.308258,258.640869 
	C361.321228,262.791534 358.676971,261.722076 356.642578,261.603943 
	C331.729431,260.156891 310.547913,250.424637 293.551758,232.184906 
	C278.362244,215.883987 270.170532,196.412766 268.935028,174.098938 
	C268.892029,173.321991 268.505127,172.461777 269.532532,171.562378 
	C275.107697,173.887100 280.065521,177.414566 284.852112,181.250183 
	C286.495819,182.567322 286.428955,184.467010 286.873596,186.191742 
	C294.254974,214.822266 312.115173,233.553055 340.214661,242.526505 
	C341.690094,242.997665 343.423462,244.484848 345.324615,242.352921 
	C346.053711,240.678604 345.995636,239.341248 345.995972,238.016891 
	C346.003387,207.484818 346.014679,176.952744 345.992859,146.420670 
	C345.992279,145.590088 345.955719,144.761993 345.634125,143.496780 
z"/>
<path fill="#2F2F2F" opacity="1.000000" stroke="none" 
	d="
M256.092010,258.937744 
	C257.151489,260.753906 256.503662,261.434174 254.599091,261.453888 
	C250.115326,260.408081 245.889481,261.709839 241.466705,260.217712 
	C241.013794,249.324905 240.881607,238.670654 240.868973,228.016266 
	C240.836365,200.523056 240.950256,173.029099 240.749786,145.537308 
	C240.721329,141.636398 241.852875,140.945358 245.463562,141.009247 
	C282.326935,141.661438 317.145447,168.719727 329.078827,206.575684 
	C329.451050,211.408600 330.639313,215.703918 331.534119,220.047379 
	C331.942230,222.028473 332.121948,223.988342 331.891632,225.946304 
	C331.601349,228.413773 330.280396,229.178467 328.204620,227.491653 
	C326.910248,226.439804 325.607178,225.453064 324.041534,224.854752 
	C319.380493,223.073547 316.123169,220.146667 315.713165,214.818039 
	C315.649841,213.994858 315.111664,213.290970 314.418884,212.298187 
	C314.093384,211.847000 314.007568,211.694763 313.937347,211.280869 
	C314.180450,208.955002 313.344208,207.226074 312.597382,205.332764 
	C309.310730,197.000641 304.082489,189.711060 300.122559,181.739014 
	C298.618469,178.711044 294.756195,176.997238 293.703583,173.277817 
	C293.518890,172.625198 292.648682,172.481201 291.965271,172.628510 
	C287.560120,173.578033 284.893311,170.448944 281.466187,168.450439 
	C281.138397,168.569641 281.071503,168.471481 281.020508,168.441040 
	C279.882233,164.707443 275.905304,165.855652 273.334106,164.048767 
	C267.870728,162.351517 262.750702,160.672745 257.246490,158.982330 
	C255.557312,160.938065 256.018799,163.164856 256.016571,165.290375 
	C255.986389,194.078537 255.999252,222.866760 255.992386,251.654953 
	C255.991821,253.982178 256.111023,256.316498 256.092010,258.937744 
z"/>
<path fill="#CDB28F" opacity="1.000000" stroke="none" 
	d="
M542.799561,386.010468 
	C545.852722,386.124390 544.735535,384.043182 544.820312,382.835663 
	C544.968811,380.722168 545.658081,379.349854 547.971680,379.171967 
	C550.262390,378.995789 551.378723,380.203430 551.667603,382.284546 
	C551.954590,384.351379 551.921387,386.674133 549.379517,387.057861 
	C546.840210,387.441254 544.760010,387.954987 542.650269,389.737457 
	C541.415161,390.781036 538.723450,391.741699 537.075806,388.244995 
	C535.689758,385.303680 531.756836,387.185638 529.117615,387.001770 
	C522.172791,386.517944 520.850586,385.430634 522.111084,378.799988 
	C522.270081,377.963409 522.317200,376.985840 523.312012,376.901947 
	C524.663147,376.788025 524.809082,377.905792 524.848267,378.923462 
	C524.899231,380.249329 524.907776,381.577271 524.912231,382.904388 
	C524.918457,384.776947 526.204285,384.883026 527.615356,384.996857 
	C529.040833,385.111816 529.797668,384.668335 529.879456,383.150330 
	C530.119812,378.688141 532.483032,378.200348 535.864746,380.166229 
	C536.827576,380.725922 537.310181,380.330627 538.019470,379.923492 
	C539.842468,378.877075 542.198486,378.207916 543.445862,379.938324 
	C544.723816,381.711121 544.206543,384.064575 541.957520,385.439880 
	C541.912903,385.467163 541.923767,385.711945 541.982727,385.755890 
	C542.110229,385.850891 542.285828,385.881195 542.799561,386.010468 
z"/>
<path fill="#121212" opacity="1.000000" stroke="none" 
	d="
M256.565430,258.830078 
	C254.611725,258.226227 255.009262,256.433167 255.008408,254.826187 
	C254.992081,224.304596 254.985916,193.783005 255.022644,163.261459 
	C255.024307,161.885132 254.359619,160.204269 256.488281,159.112946 
	C256.807648,188.453537 256.753479,217.936386 256.697845,247.419250 
	C256.690918,251.084152 256.676178,254.749039 256.565430,258.830078 
z"/>
<path fill="#121212" opacity="1.000000" stroke="none" 
	d="
M345.398682,143.510223 
	C347.570953,143.624802 346.989716,145.365417 346.990784,146.753662 
	C347.014435,177.481659 347.010071,208.209656 347.001770,238.937668 
	C347.001495,239.904053 347.212738,240.960983 345.867889,241.796417 
	C345.446869,217.283173 345.366516,192.625565 345.306000,167.967896 
	C345.286377,159.968826 345.318634,151.969635 345.398682,143.510223 
z"/>
<path fill="#CDB28F" opacity="1.000000" stroke="none" 
	d="
M484.705078,386.918915 
	C480.770935,387.314972 483.231750,383.786713 481.470184,382.756348 
	C480.271271,383.066345 480.844849,384.236908 480.775177,385.041718 
	C480.661682,386.353333 480.287994,387.565613 478.799774,387.289032 
	C477.168335,386.985870 477.892181,385.547424 477.825073,384.429993 
	C477.717773,382.643066 479.092285,379.527527 476.743805,379.385803 
	C473.511169,379.190582 474.270782,382.557312 474.111176,384.785828 
	C474.055115,385.568573 473.865295,386.341797 473.683472,387.439728 
	C471.291504,386.369232 472.179932,384.540985 471.994171,383.123383 
	C471.908020,382.465790 471.750702,381.733032 471.944611,381.138336 
	C472.648926,378.978333 467.232727,378.383942 470.113434,376.848175 
	C472.712921,375.462372 477.278748,375.252838 479.664001,376.695740 
	C481.969421,378.090332 486.357758,379.651855 484.727448,384.967255 
	C487.067200,382.880768 484.948761,379.984802 487.527985,378.885498 
	C489.624878,380.124786 488.218018,382.594055 489.164124,384.303619 
	C489.554443,384.109528 489.877289,384.056152 490.001251,383.870239 
	C490.912994,382.502441 489.020508,379.618256 491.850220,379.526581 
	C493.523071,379.472382 492.908447,381.622406 493.013885,382.853485 
	C493.208618,385.126923 493.258820,387.361572 489.916382,387.102722 
	C488.292755,386.976990 486.665527,386.897827 484.705078,386.918915 
z"/>
<path fill="#2F2F2F" opacity="1.000000" stroke="none" 
	d="
M281.381073,168.810776 
	C283.315125,167.459320 284.629059,170.232513 285.850952,170.082321 
	C293.110626,169.189972 295.431915,176.108597 300.384430,178.736816 
	C300.636627,178.870651 300.895691,179.188187 300.953613,179.462051 
	C301.957001,184.205582 305.457092,187.610245 307.471893,191.617569 
	C309.789673,196.227325 311.702911,201.207382 314.250580,205.816177 
	C315.125061,207.398102 315.266357,208.918396 314.235901,210.780273 
	C307.761292,193.498260 297.426514,179.168991 281.381073,168.810776 
z"/>
<path fill="#2F2F2F" opacity="1.000000" stroke="none" 
	d="
M314.173157,212.394501 
	C315.652954,212.490005 317.954468,212.392426 317.517273,214.727768 
	C316.471466,220.313782 320.470367,221.892120 324.260254,223.539658 
	C326.478485,224.503983 329.049774,224.762894 330.032562,227.823456 
	C331.983551,221.813293 329.088898,216.643295 328.535248,211.258301 
	C328.402130,209.963470 327.714539,208.739243 328.790619,207.208160 
	C331.960480,214.651459 332.860962,222.647430 333.204163,231.748535 
	C324.798798,226.655853 315.181427,224.178711 314.173157,212.394501 
z"/>
<path fill="#CDB28F" opacity="1.000000" stroke="none" 
	d="
M504.651428,379.629761 
	C506.536591,379.387543 508.023041,379.150513 509.505371,379.173859 
	C512.714050,379.224304 513.064758,381.020386 512.686951,383.851349 
	C512.318970,386.609131 511.774261,387.969238 508.559662,387.218475 
	C502.311127,385.759064 501.705536,384.909790 504.651428,379.629761 
z"/>
<path fill="#CDB28F" opacity="1.000000" stroke="none" 
	d="
M574.848389,386.678009 
	C573.091309,387.052490 571.274841,387.952698 571.203735,385.461212 
	C571.146362,383.450500 569.907776,380.400787 572.248779,379.600586 
	C575.081726,378.632202 578.910339,378.047882 581.297485,380.017242 
	C583.107544,381.510437 582.458435,384.744019 581.443420,387.390350 
	C578.910095,386.155853 580.789917,383.721344 579.353027,382.400970 
	C576.280212,382.129303 580.104675,388.755646 574.848389,386.678009 
z"/>
<path fill="#CDB28F" opacity="1.000000" stroke="none" 
	d="
M500.848083,384.576660 
	C498.553864,388.469971 496.814758,388.465149 495.736877,384.244171 
	C495.115082,381.809113 493.525452,379.500549 494.344177,376.441803 
	C497.419403,377.529755 496.494446,380.659546 498.084778,382.165649 
	C498.333008,382.105682 498.706726,382.127167 498.800690,381.975433 
	C499.820251,380.328583 499.397400,376.217896 501.811554,377.422333 
	C504.408813,378.718170 500.746338,381.774048 500.848083,384.576660 
z"/>
<path fill="#CDB28F" opacity="1.000000" stroke="none" 
	d="
M520.853394,382.241394 
	C520.522827,384.075836 521.872437,386.604065 519.460083,386.652283 
	C517.239380,386.696686 519.039001,383.671539 517.587585,382.650848 
	C517.396057,382.820679 517.088440,382.979675 516.955017,383.231110 
	C516.306030,384.454376 517.534119,386.529755 515.518860,387.039551 
	C514.238525,387.363403 513.863159,386.066101 514.021484,385.080292 
	C514.333801,383.135864 512.674133,380.373779 515.450317,379.438568 
	C517.514282,378.743286 520.243042,378.355957 520.853394,382.241394 
z"/>
<path fill="#CDB28F" opacity="1.000000" stroke="none" 
	d="
M566.246887,387.357422 
	C564.542664,386.894562 563.433472,386.191528 563.260132,384.704773 
	C563.053772,382.934204 562.681702,380.974884 564.442322,379.751343 
	C565.896667,378.740662 567.590454,378.717590 568.979309,379.938568 
	C570.559021,381.327332 570.192383,383.285248 569.839661,384.991364 
	C569.523438,386.520264 568.311157,387.453674 566.246887,387.357422 
z"/>
<path fill="#CDB28F" opacity="1.000000" stroke="none" 
	d="
M561.659790,380.001282 
	C561.778992,382.033478 555.647461,382.669525 561.036804,385.445099 
	C562.666504,386.284454 561.100159,387.558929 559.924316,387.374359 
	C557.846436,387.048218 555.652832,386.835358 553.465576,385.200531 
	C554.647949,384.231354 557.501404,385.537781 557.003479,382.345947 
	C556.483704,379.014191 558.849304,378.614532 561.659790,380.001282 
z"/>
<path fill="#121212" opacity="1.000000" stroke="none" 
	d="
M241.078156,260.390381 
	C245.278473,260.302917 249.531433,259.313934 253.928192,260.964417 
	C249.803619,261.381500 245.383240,262.388672 241.078156,260.390381 
z"/>
<path fill="#2F2F2F" opacity="1.000000" stroke="none" 
	d="
M273.216553,164.241577 
	C275.052094,162.903732 279.622101,164.943909 280.973816,168.003357 
	C278.460480,167.091354 275.951416,165.772095 273.216553,164.241577 
z"/>
<path fill="#2F2F2F" opacity="1.000000" stroke="none" 
	d="
M359.000000,242.987717 
	C359.000000,210.365341 359.000000,178.240295 359.000000,146.115250 
	C359.238495,146.115402 359.477020,146.115555 359.715515,146.115707 
	C359.715515,182.638611 359.715515,219.161530 359.715515,255.684433 
	C359.477020,255.698273 359.238495,255.712112 359.000000,255.725952 
	C359.000000,251.645645 359.000000,247.565353 359.000000,242.987717 
z"/>
<path fill="#FFFFFF" opacity="1.000000" stroke="none" 
	d="
M575.456787,384.724213 
	C573.729431,384.888794 573.967590,383.846313 574.154663,382.902710 
	C574.191162,382.718384 574.658325,382.443207 574.849609,382.495056 
	C575.904602,382.780975 575.765503,383.643738 575.456787,384.724213 
z"/>
<path fill="#FFFFFF" opacity="1.000000" stroke="none" 
	d="
M567.033569,381.430115 
	C567.971008,382.593842 568.254456,383.758331 567.262573,384.681000 
	C566.768372,385.140778 565.884827,384.875519 565.603821,384.191620 
	C565.105652,382.979248 565.353760,381.918640 567.033569,381.430115 
z"/>
</svg>